<svg width="80" height="81" viewBox="0 0 80 81" fill="none" xmlns="http://www.w3.org/2000/svg">
<path fill-rule="evenodd" clip-rule="evenodd" d="M14.29 73.1792L5.69159 62.4676C3.62282 59.8904 2.5 56.7213 2.5 53.4594V14.6722C2.5 9.78637 6.40896 5.73219 11.4518 5.38789L51.3303 2.66522C54.2275 2.46742 57.107 3.23749 59.4869 4.84652L73.4981 14.3195C76.0061 16.0152 77.5 18.7872 77.5 21.7454V65.8427C77.5 70.6241 73.6564 74.583 68.7191 74.8869L24.4583 77.6114C20.5183 77.854 16.71 76.194 14.29 73.1792Z" fill="white"/>
<path d="M28.1205 34.0813V33.5735C28.1205 32.2863 29.1514 31.2187 30.4801 31.13L40.1585 30.4838L53.5429 50.1933V32.8949L50.0978 32.4356V32.1944C50.0978 30.8921 51.1523 29.8175 52.4979 29.7485L61.3042 29.2974V30.5647C61.3042 31.1596 60.8618 31.6685 60.2555 31.771L58.1363 32.1295V60.1438L55.4767 61.0584C53.2548 61.8225 50.7812 61.0046 49.5092 59.0852L36.5154 39.4775V58.1919L40.5149 58.9574L40.4591 59.3283C40.2846 60.4904 39.2814 61.3692 38.0677 61.4232L28.1205 61.8659C27.989 60.6164 28.9255 59.4984 30.2175 59.3627L31.526 59.2253V34.2726L28.1205 34.0813Z" fill="black"/>
<path fill-rule="evenodd" clip-rule="evenodd" d="M51.6875 7.55148L11.8089 10.2741C9.42022 10.4372 7.5686 12.3576 7.5686 14.672V53.4592C7.5686 55.6338 8.31715 57.7465 9.69633 59.4647L18.2947 70.1763C19.6849 71.9081 21.8727 72.8618 24.1361 72.7224L68.3968 69.9979C70.6653 69.8583 72.4313 68.0393 72.4313 65.8425V21.7452C72.4313 20.386 71.745 19.1124 70.5926 18.3333L56.5814 8.86026C55.1535 7.89484 53.4258 7.4328 51.6875 7.55148ZM13.7864 15.277C13.2318 14.8664 13.4957 14.0109 14.1925 13.9609L51.9557 11.2523C53.1589 11.166 54.3545 11.4973 55.3276 12.1867L62.9044 17.5548C63.1921 17.7586 63.0572 18.1986 62.7011 18.218L22.7099 20.3929C21.4997 20.4588 20.3051 20.1032 19.3428 19.3908L13.7864 15.277ZM20.8342 27.2113C20.8342 25.9121 21.8838 24.8389 23.2259 24.7658L65.5079 22.4632C66.8159 22.3919 67.9171 23.3979 67.9171 24.6641V62.8477C67.9171 64.1445 66.8712 65.2166 65.5317 65.2928L23.5174 67.6833C22.0617 67.7662 20.8342 66.6476 20.8342 65.2382V27.2113Z" fill="black"/>
</svg>
